<?xml version="1.0" encoding="utf-8"?>
<!-- Generator: Adobe Illustrator 17.0.0, SVG Export Plug-In . SVG Version: 6.00 Build 0)  -->
<!DOCTYPE svg PUBLIC "-//W3C//DTD SVG 1.1//EN" "http://www.w3.org/Graphics/SVG/1.1/DTD/svg11.dtd">
<svg version="1.1" id="Layer_1" xmlns="http://www.w3.org/2000/svg" xmlns:xlink="http://www.w3.org/1999/xlink" x="0px" y="0px"
	 width="85.039px" height="85.039px" viewBox="0 0 85.039 85.039" enable-background="new 0 0 85.039 85.039" xml:space="preserve">
<g>
	<path fill="#3994D1" d="M43.2,21.792c-11.429,0-20.728,9.298-20.728,20.728S31.77,63.247,43.2,63.247s20.728-9.298,20.728-20.728
		S54.629,21.792,43.2,21.792z"/>
	<path fill="#21415B" d="M74.48,48.051c-2.626,14.89-15.648,26.241-31.28,26.241c-17.52,0-31.772-14.253-31.772-31.772
		S25.68,10.747,43.2,10.747c14.948,0,27.511,10.38,30.878,24.308l5.342-4.421C74.413,15.415,60.073,4.393,43.2,4.393
		c-21.023,0-38.127,17.103-38.127,38.127S22.177,80.646,43.2,80.646c17.537,0,32.337-11.905,36.766-28.055L74.48,48.051z"/>
	<g>
		<path fill="#FFFFFF" d="M51.082,36.127c-0.454-0.151-1.082-0.309-1.883-0.476c-0.802-0.166-1.732-0.25-2.791-0.25
			c-0.605,0-1.248,0.061-1.928,0.182c-0.68,0.121-1.157,0.227-1.43,0.318v19.014h-5.491V32.316c1.059-0.392,2.383-0.763,3.971-1.112
			c1.588-0.348,3.35-0.522,5.287-0.522c0.363,0,0.786,0.023,1.27,0.068c0.484,0.046,0.967,0.106,1.452,0.182
			c0.484,0.076,0.953,0.167,1.407,0.272c0.454,0.106,0.816,0.204,1.089,0.295L51.082,36.127z"/>
		<path fill="#FFFFFF" d="M43.286,55.151h-5.964v-23l0.154-0.057c1.065-0.395,2.412-0.772,4.003-1.121
			c1.599-0.35,3.394-0.528,5.338-0.528c0.367,0,0.79,0.022,1.292,0.069c0.486,0.046,0.979,0.108,1.467,0.184
			c0.481,0.075,0.961,0.168,1.424,0.275c0.47,0.11,0.834,0.208,1.111,0.301l0.198,0.066l-1.049,5.095l-0.252-0.085
			c-0.441-0.146-1.065-0.305-1.857-0.469c-0.785-0.163-1.708-0.245-2.743-0.245c-0.584,0-1.219,0.06-1.887,0.178
			c-0.548,0.097-0.962,0.184-1.235,0.26V55.151z M37.795,54.678h5.018V35.731l0.161-0.054c0.282-0.095,0.761-0.202,1.464-0.326
			c0.696-0.124,1.358-0.186,1.97-0.186c1.067,0,2.022,0.085,2.839,0.255c0.67,0.139,1.226,0.275,1.657,0.404l0.856-4.164
			c-0.233-0.07-0.519-0.144-0.868-0.227c-0.451-0.105-0.919-0.195-1.39-0.269c-0.478-0.074-0.962-0.134-1.438-0.179
			c-0.48-0.045-0.9-0.067-1.248-0.067c-1.909,0-3.671,0.173-5.236,0.516c-1.494,0.328-2.765,0.68-3.785,1.046V54.678z"/>
	</g>
</g>
</svg>
